<svg width="14" height="14" viewBox="0 0 14 14" fill="none" xmlns="http://www.w3.org/2000/svg">
<path fill-rule="evenodd" clip-rule="evenodd" d="M3.11101 1.17971C4.26215 0.410543 5.61553 0 7 0C8.85586 0.00216138 10.6351 0.740354 11.9474 2.05264C13.2596 3.36492 13.9978 5.14414 14 7C14 8.38444 13.5895 9.73786 12.8203 10.889C12.0511 12.0402 10.9579 12.9373 9.67882 13.4671C8.39969 13.997 6.99224 14.1356 5.63437 13.8655C4.2765 13.5954 3.02923 12.9287 2.05025 11.9498C1.07129 10.9708 0.404602 9.72347 0.134506 8.36562C-0.13559 7.00776 0.00303296 5.6003 0.532846 4.32122C1.06266 3.04213 1.95987 1.94889 3.11101 1.17971ZM3.75918 11.8502C4.71847 12.4912 5.84628 12.8333 7 12.8333C8.54661 12.8316 10.0293 12.2165 11.1229 11.1229C12.2165 10.0293 12.8316 8.54661 12.8333 7C12.8333 5.84628 12.4912 4.71846 11.8502 3.75917C11.2093 2.79988 10.2982 2.05221 9.2323 1.6107C8.16643 1.16919 6.99353 1.05367 5.86198 1.27875C4.73042 1.50383 3.69102 2.0594 2.87521 2.87521C2.05941 3.69101 1.50383 4.73041 1.27875 5.86197C1.05368 6.99353 1.16919 8.16643 1.61071 9.2323C2.05221 10.2982 2.79989 11.2093 3.75918 11.8502ZM7.29167 6.74392L9.99483 9.2225C10.1088 9.32696 10.1766 9.4724 10.1834 9.62687C10.1901 9.78126 10.1354 9.93207 10.031 10.0462C9.92561 10.1588 9.78024 10.2257 9.62617 10.2323C9.47201 10.239 9.32143 10.1849 9.20671 10.0817L6.314 7.4305C6.25435 7.37578 6.20674 7.30924 6.17421 7.23513C6.14167 7.16102 6.12491 7.08094 6.125 7V3.79167C6.125 3.63696 6.18646 3.48858 6.29585 3.37919C6.40525 3.26979 6.55363 3.20833 6.70833 3.20833C6.86304 3.20833 7.01142 3.26979 7.12081 3.37919C7.23021 3.48858 7.29167 3.63696 7.29167 3.79167V6.74392Z" fill="white"/>
</svg>
