<svg width="10" height="7" viewBox="0 0 10 7" fill="none" xmlns="http://www.w3.org/2000/svg">
<path d="M0.000803367 0.627489C0.0508011 0.177509 0.537439 -0.165807 0.987418 0.0841813C1.13741 0.184176 1.2874 0.334169 1.3874 0.434165C2.48735 1.68411 3.5373 2.88404 4.63725 4.13398C4.73725 4.23398 4.83724 4.33397 4.93724 4.33397C5.03723 4.33397 5.08723 4.23398 5.18723 4.18398C6.28716 2.98403 7.38711 1.73411 8.43706 0.53416C8.63706 0.334169 8.88704 0.0841804 9.13703 0.0341826C9.38702 -0.0158152 9.63701 0.0841799 9.787 0.234173C9.937 0.384166 10.037 0.634155 9.98699 0.884143C9.937 1.08413 9.787 1.28413 9.63701 1.43412C8.38707 2.88404 7.13712 4.33397 5.83718 5.73391C5.63721 5.9839 5.38722 6.18389 5.08723 6.23389C4.78725 6.23389 4.53726 6.0339 4.33727 5.8339C3.93728 5.48392 3.5873 5.08394 3.23732 4.68396C2.28736 3.63401 1.3374 2.53406 0.437443 1.48412C0.267458 1.28579 0.22746 1.24079 0.0941324 1.0408C-0.0150559 0.877011 0.000803371 0.727484 0.000803367 0.627489Z" fill="white"/>
</svg>
