<svg width="30" height="28" viewBox="0 0 30 28" fill="none" xmlns="http://www.w3.org/2000/svg">
<path d="M30 12.0091C29.9972 11.0379 29.7997 10.0772 29.4193 9.18354C29.039 8.28991 28.4834 7.48155 27.7853 6.8062C26.617 5.67424 25.0971 4.97535 23.4773 4.82525C23.4285 4.82081 23.3815 4.80491 23.34 4.77885C23.2985 4.75278 23.2637 4.71731 23.2385 4.67528C22.2512 3.02383 20.7904 1.70707 19.0459 0.895676C17.3011 0.0842761 15.353 -0.184342 13.4538 0.12464C11.5547 0.433614 9.79216 1.30595 8.39469 2.62856C6.99722 3.95117 6.02927 5.66306 5.6163 7.54234C5.60262 7.60918 5.56752 7.66975 5.51633 7.71486C5.46514 7.75997 5.40063 7.78715 5.33259 7.7923C3.88737 7.89552 2.53474 8.54178 1.54641 9.60129C0.558089 10.6608 0.0072881 12.055 0.00465618 13.5039C-0.0260323 14.2427 0.0952307 14.98 0.360941 15.6701C0.626651 16.3602 1.03115 16.9883 1.54942 17.5159C2.79583 18.612 4.39517 19.2229 6.05498 19.2368C6.21911 19.2344 6.38115 19.1996 6.53184 19.1344C6.68255 19.0694 6.81895 18.9753 6.93328 18.8575C7.0476 18.7397 7.13758 18.6005 7.19811 18.4479C7.25863 18.2954 7.28851 18.1324 7.28604 17.9683C7.27381 17.6392 7.1351 17.3275 6.89877 17.0981C6.66246 16.8688 6.34677 16.7395 6.01749 16.7371C5.02158 16.7426 4.05736 16.3874 3.30291 15.7373C3.02333 15.44 2.80812 15.0882 2.6707 14.7039C2.53329 14.3196 2.47663 13.9111 2.50428 13.5039C2.5032 13.0233 2.60973 12.5486 2.81605 12.1146C3.02237 11.6805 3.32324 11.2982 3.6966 10.9956C4.07089 10.6917 4.50812 10.475 4.97655 10.3611C5.44498 10.2472 5.9329 10.2389 6.40493 10.3369C6.58039 10.3731 6.76157 10.3711 6.93621 10.3311C7.11084 10.2911 7.27483 10.214 7.41707 10.1051C7.5593 9.99614 7.67645 9.85791 7.76059 9.69974C7.84472 9.54156 7.89387 9.36716 7.9047 9.18833C7.99775 7.61186 8.61326 6.11127 9.65405 4.92356C10.6949 3.73582 12.1016 2.92863 13.6522 2.62939C15.2028 2.33016 16.809 2.55595 18.217 3.27113C19.6249 3.98628 20.7546 5.15007 21.4277 6.57874C21.5268 6.80382 21.6929 6.99291 21.9034 7.12035C22.1137 7.24778 22.3582 7.30741 22.6036 7.29113C23.2375 7.26053 23.8709 7.36118 24.464 7.58678C25.0573 7.81238 25.5973 8.15808 26.0506 8.60217C26.5109 9.04192 26.8768 9.57078 27.1261 10.1565C27.3752 10.7422 27.5027 11.3726 27.5004 12.0091C27.4932 13.1894 27.0508 14.3255 26.2579 15.1997C25.465 16.0741 24.3775 16.625 23.2035 16.7471C22.8878 16.7873 22.599 16.9466 22.3965 17.1924C22.194 17.438 22.0931 17.7518 22.114 18.0696C22.1352 18.3874 22.2767 18.6852 22.5098 18.902C22.743 19.1189 23.0501 19.2386 23.3685 19.2368C23.4233 19.2368 23.478 19.2331 23.5323 19.2256C25.3101 19.031 26.9533 18.1868 28.1469 16.855C29.3406 15.5232 30.0005 13.7975 30 12.0091Z" fill="white"/>
<path d="M19.3768 20.4864H17.1897C17.1068 20.4864 17.0273 20.4534 16.9687 20.3949C16.9102 20.3363 16.8772 20.2568 16.8772 20.174V11.1128C16.8772 10.6156 16.6797 10.1388 16.3282 9.7872C15.9766 9.43562 15.4997 9.2381 15.0025 9.2381C14.5053 9.2381 14.0285 9.43562 13.6769 9.7872C13.3253 10.1388 13.1278 10.6156 13.1278 11.1128V20.179C13.1278 20.2618 13.0949 20.3413 13.0363 20.3999C12.9777 20.4584 12.8982 20.4914 12.8154 20.4914H10.6282C10.3811 20.4914 10.1395 20.5647 9.93399 20.7021C9.7285 20.8394 9.56836 21.0347 9.47378 21.263C9.37921 21.4913 9.35446 21.7426 9.40267 21.9849C9.45086 22.2273 9.56986 22.4499 9.74458 22.6248L14.1189 26.9991C14.3533 27.2334 14.6711 27.365 15.0025 27.365C15.3339 27.365 15.6518 27.2334 15.8861 26.9991L20.2605 22.6248C20.4352 22.4499 20.5541 22.2273 20.6025 21.9849C20.6506 21.7426 20.6258 21.4913 20.5313 21.263C20.4367 21.0347 20.2765 20.8394 20.071 20.7021C19.8656 20.5647 19.6239 20.4914 19.3768 20.4914V20.4864Z" fill="white"/>
</svg>
