<svg width="30" height="27" viewBox="0 0 30 27" fill="none" xmlns="http://www.w3.org/2000/svg">
<path d="M17.1026 3.44292L17.0854 3.45876L16.0177 4.4429L15.0033 5.37801L13.9868 4.44512L12.9529 3.49626L12.9286 3.47391L12.9053 3.45051C12.1538 2.69723 11.2358 2.13653 10.2279 1.81398L10.6851 0.38536L10.2279 1.81398C9.22012 1.49145 8.15084 1.41609 7.10868 1.59399L7.09893 1.59565L7.08916 1.59718C6.05485 1.75973 5.07307 2.16882 4.22553 2.79136C3.37795 3.41395 2.68886 4.23226 2.21648 5.17905L2.21256 5.1869L2.21254 5.18689C1.58263 6.43114 1.36212 7.84639 1.58397 9.22671C1.80581 10.6069 2.45802 11.8782 3.44369 12.8566L3.45568 12.8685L3.46741 12.8807L15.0011 24.8573L26.5187 12.9031L26.5311 12.8902L26.5439 12.8776C27.5341 11.8978 28.1901 10.6237 28.4143 9.23955L28.4144 9.23941C28.6386 7.8562 28.4197 6.43741 27.7902 5.18934C27.3084 4.24439 26.6141 3.42752 25.764 2.80358L17.1026 3.44292ZM17.1026 3.44292L17.1192 3.42655M17.1026 3.44292L17.1192 3.42655M17.1192 3.42655C17.8738 2.68618 18.7894 2.13537 19.7919 1.81746C20.7944 1.49957 21.8565 1.42318 22.8931 1.59423C23.9297 1.76529 24.9131 2.17918 25.7639 2.80351L17.1192 " stroke="white" stroke-width="3"/>
</svg>
