<svg width="14" height="13" viewBox="0 0 14 13" fill="none" xmlns="http://www.w3.org/2000/svg">
<path d="M13.593 2.10497C13.3187 1.56645 12.9228 1.10031 12.4373 0.743993C11.9518 0.387673 11.3901 0.151112 10.7974 0.0533157C10.2048 -0.0444799 9.59754 -0.000783622 9.02463 0.180894C8.45173 0.362572 7.92907 0.677165 7.49873 1.0994L7.0005 1.55867L6.51802 1.11586C6.08865 0.685451 5.56356 0.36455 4.98639 0.179835C4.40923 -0.0048804 3.79666 -0.0480751 3.1996 0.0538402C2.606 0.147127 2.04305 0.381839 1.55752 0.738473C1.07199 1.09512 0.677904 1.56339 0.40799 2.10438C0.0471956 2.81705 -0.0788818 3.62708 0.048057 4.41688C0.174996 5.20667 0.548346 5.93514 1.11391 6.49655L6.5822 12.1748C6.63656 12.2312 6.7016 12.2759 6.77345 12.3065C6.8453 12.3372 6.9225 12.3529 7.0005 12.3529C7.0785 12.3529 7.15571 12.3372 7.22756 12.3065C7.2994 12.2759 7.36443 12.2312 7.41881 12.1748L12.8795 6.50713C13.4474 5.94519 13.8227 5.2154 13.951 4.42375C14.0794 3.63212 13.954 2.81986 13.593 2.10497Z" fill="#65D46E"/>
</svg>
