<svg width="16" height="16" viewBox="0 0 16 16" fill="none" xmlns="http://www.w3.org/2000/svg">
<path d="M11.3422 1.33441C11.9422 1.40107 12.4 2.04996 12.0667 2.64996C11.9333 2.84996 11.7333 3.04995 11.6 3.18329C9.93333 4.64995 8.33333 6.04995 6.66666 7.51662C6.53333 7.64995 6.4 7.78329 6.4 7.91662C6.4 8.04995 6.53333 8.11662 6.6 8.24995C8.19999 9.71662 9.86666 11.1833 11.4667 12.5833C11.7333 12.85 12.0667 13.1833 12.1333 13.5166C12.2 13.85 12.0667 14.1833 11.8667 14.3833C11.6667 14.5833 11.3333 14.7166 11 14.65C10.7333 14.5833 10.4667 14.3833 10.2667 14.1833C8.33333 12.5166 6.4 10.85 4.53333 9.11662C4.2 8.84995 3.93333 8.51662 3.86666 8.11662C3.86666 7.71662 4.13333 7.38329 4.4 7.11662C4.86666 6.58329 5.4 6.11662 5.93333 5.64995C7.33333 4.38329 8.79999 3.11662 10.2 1.91662C10.4644 1.68996 10.5244 1.63663 10.7911 1.45885C11.0095 1.31325 11.2089 1.33441 11.3422 1.33441Z" fill="white"/>
</svg>
