<svg width="20" height="24" viewBox="0 0 20 24" fill="none" xmlns="http://www.w3.org/2000/svg">
<path fill-rule="evenodd" clip-rule="evenodd" d="M1.875 0.083313H6.20833C7.1058 0.083313 7.83333 0.81085 7.83333 1.70831V22.2916C7.83333 23.1891 7.1058 23.9166 6.20833 23.9166H1.875C0.977537 23.9166 0.25 23.1891 0.25 22.2916V1.70831C0.25 0.81085 0.977537 0.083313 1.875 0.083313ZM13.7917 0.083313H18.125C19.0225 0.083313 19.75 0.81085 19.75 1.70831V22.2916C19.75 23.1891 19.0225 23.9166 18.125 23.9166H13.7917C12.8942 23.9166 12.1667 23.1891 12.1667 22.2916V1.70831C12.1667 0.81085 12.8942 0.083313 13.7917 0.083313Z" fill="#0F1A29"/>
</svg>
