<svg width="26" height="26" viewBox="0 0 26 26" fill="none" xmlns="http://www.w3.org/2000/svg">
<path d="M25.0679 11.4907L2.44071 0.176571C2.18347 0.0486867 1.89785 -0.0114657 1.61088 0.00180256C1.32391 0.0150708 1.04507 0.101321 0.800722 0.252397C0.556376 0.403472 0.354605 0.614379 0.214492 0.865172C0.0743793 1.11596 0.00055446 1.39835 0 1.68563V24.3128C0.000441578 24.6001 0.0742124 24.8826 0.214326 25.1334C0.354441 25.3841 0.556259 25.595 0.80067 25.7461C1.04508 25.897 1.32399 25.9833 1.61099 25.9963C1.898 26.0094 2.18357 25.9489 2.44071 25.8208L25.0679 14.5078C25.348 14.3676 25.5836 14.1523 25.7482 13.8859C25.9129 13.6194 26 13.3124 26 12.9992C26 12.686 25.9129 12.379 25.7482 12.1126C25.5836 11.8462 25.348 11.6308 25.0679 11.4907Z" fill="#0F1A29"/>
</svg>
