<svg width="16" height="16" viewBox="0 0 16 16" fill="none" xmlns="http://www.w3.org/2000/svg">
<path d="M4.65782 14.6656C4.05782 14.5989 3.60001 13.95 3.93334 13.35C4.06668 13.15 4.26668 12.95 4.40001 12.8167C6.06667 11.35 7.66667 9.95004 9.33334 8.48338C9.46667 8.35004 9.6 8.21671 9.6 8.08338C9.6 7.95005 9.46667 7.88338 9.40001 7.75005C7.80001 6.28338 6.13334 4.81671 4.53334 3.41671C4.26668 3.15004 3.93334 2.81671 3.86668 2.48338C3.80001 2.15004 3.93334 1.81671 4.13334 1.61671C4.33334 1.41671 4.66667 1.28338 5.00001 1.35004C5.26667 1.41671 5.53334 1.61671 5.73334 1.81671C7.66667 3.48338 9.6 5.15004 11.4667 6.88338C11.8 7.15004 12.0667 7.48338 12.1333 7.88338C12.1333 8.28338 11.8667 8.61671 11.6 8.88338C11.1333 9.41671 10.6 9.88338 10.0667 10.35C8.66667 11.6167 7.20001 12.8834 5.80001 14.0834C5.53557 14.31 5.47559 14.3634 5.20892 14.5411C4.99052 14.6867 4.79115 14.6656 4.65782 14.6656Z" fill="white"/>
</svg>
