<svg width="18" height="19" viewBox="0 0 18 19" fill="none" xmlns="http://www.w3.org/2000/svg">
<path fill-rule="evenodd" clip-rule="evenodd" d="M12.7341 11.3875L17.7206 16.3757C18.0931 16.7489 18.0931 17.3533 17.7206 17.7265C17.345 18.093 16.7459 18.093 16.3703 17.7265L11.3837 12.7383C8.41483 14.9976 4.20366 14.5694 1.74991 11.7587C-0.703826 8.94803 -0.560921 4.71617 2.07683 2.07752C4.7146 -0.561107 8.94506 -0.70406 11.7548 1.75049C14.5645 4.20506 14.9926 8.41763 12.7341 11.3875ZM7.11732 1.95969C4.27011 1.95969 1.96198 4.26858 1.96198 7.11674C1.96535 9.96351 4.27151 12.2704 7.11732 12.2738C9.96453 12.2738 12.2726 9.96491 12.2726 7.11674C12.2726 4.26858 9.96453 1.95969 7.11732 1.95969Z" fill="white"/>
</svg>
