<svg width="15" height="20" viewBox="0 0 15 20" fill="none" xmlns="http://www.w3.org/2000/svg">
<path fill-rule="evenodd" clip-rule="evenodd" d="M6.7053 0.683457C6.7053 0.305998 6.3993 0 6.02184 0H4.82579C4.44832 0 4.14233 0.305998 4.14233 0.683457V19.2087C4.14233 19.5862 4.44832 19.8921 4.82579 19.8921H6.02184C6.3993 19.8921 6.7053 19.5862 6.7053 19.2087V0.683457Z" fill="#65D46E"/>
<path fill-rule="evenodd" clip-rule="evenodd" d="M10.6946 8.88487C10.6946 8.50741 10.3886 8.20142 10.0111 8.20142H8.81505C8.43758 8.20142 8.13159 8.50741 8.13159 8.88487V19.1366C8.13159 19.5141 8.43758 19.8201 8.81505 19.8201H10.0111C10.3886 19.8201 10.6946 19.5141 10.6946 19.1366V8.88487Z" fill="#65D46E"/>
<path fill-rule="evenodd" clip-rule="evenodd" d="M14.7954 14.4893C14.7954 14.0363 14.4894 13.6691 14.1119 13.6691H12.9159C12.5384 13.6691 12.2324 14.0363 12.2324 14.4893V19.0001C12.2324 19.4531 12.5384 19.8202 12.9159 19.8202H14.1119C14.4894 19.8202 14.7954 19.4531 14.7954 19.0001V14.4893Z" fill="#65D46E"/>
<path fill-rule="evenodd" clip-rule="evenodd" d="M2.56296 12.3022C2.56296 11.9247 2.25697 11.6187 1.87951 11.6187H0.683456C0.305994 11.6187 0 11.9247 0 12.3022V19.3165C0 19.694 0.305994 19.9999 0.683456 19.9999H1.87951C2.25697 19.9999 2.56296 19.694 2.56296 19.3165V12.3022Z" fill="#65D46E"/>
</svg>
