<svg width="10" height="7" viewBox="0 0 10 7" fill="none" xmlns="http://www.w3.org/2000/svg">
<path d="M9.99895 5.6064C9.94895 6.05638 9.46232 6.39969 9.01234 6.14971C8.86234 6.04971 8.71235 5.89972 8.61236 5.79972C7.51241 4.54978 6.46245 3.34985 5.3625 2.0999C5.26251 1.99991 5.16251 1.89991 5.06252 1.89991C4.96252 1.89991 4.91252 1.99991 4.81253 2.04991C3.71259 3.24985 2.61264 4.49978 1.56269 5.69973C1.3627 5.89972 1.11271 6.14971 0.862723 6.1997C0.612735 6.2497 0.362745 6.14971 0.212752 5.99971C0.0627594 5.84972 -0.0372353 5.59973 0.0127621 5.34974C0.0627604 5.14975 0.212753 4.94976 0.362746 4.79977C1.61269 3.34985 2.86263 1.89991 4.16257 0.499977C4.36255 0.249989 4.61254 0.0499977 4.91252 0C5.21251 0 5.4625 0.199991 5.66249 0.399982C6.06247 0.749966 6.41246 1.14995 6.76244 1.54993C7.7124 2.59988 8.66235 3.69983 9.56231 4.74977C9.7323 4.94809 9.7723 4.99309 9.90562 5.19308C10.0148 5.35688 9.99895 5.5064 9.99895 5.6064Z" fill="white"/>
</svg>
